<?xml version="1.0" encoding="utf-8"?>
<svg viewBox="15 15 170 170" xmlns="http://www.w3.org/2000/svg">
  <g id="g3938" transform="matrix(1.25, 0, 0, -1.25, -925.2446899414062, 231.84750366210938)">
    <g id="g3922">
      <path style="fill:#000000;fill-opacity:1;stroke:none" id="path3753" d="m -15.56512,51.944229 c 0,7.996631 -6.48255,14.47918 -14.47918,14.47918 -7.996631,0 -14.47918,-6.482549 -14.47918,-14.47918 0,-7.99663 6.482549,-14.47918 14.47918,-14.47918 7.99663,0 14.47918,6.48255 14.47918,14.47918 z" transform="matrix(0.05525175,0,0,-0.05525175,821.85574,108.34801)"/>
      <g id="g3908">
        <path transform="matrix(0.11050349,0,0,-0.11050349,823.51574,44.818019)" d="m -15.56512,51.944229 c 0,7.996631 -6.48255,14.47918 -14.47918,14.47918 -7.996631,0 -14.47918,-6.482549 -14.47918,-14.47918 0,-7.99663 6.482549,-14.47918 14.47918,-14.47918 7.99663,0 14.47918,6.48255 14.47918,14.47918 z" id="path3753-6" style="fill:#000000;fill-opacity:1;stroke:none"/>
        <path transform="matrix(0.11050349,0,0,-0.11050349,823.51574,177.61802)" d="m -15.56512,51.944229 c 0,7.996631 -6.48255,14.47918 -14.47918,14.47918 -7.996631,0 -14.47918,-6.482549 -14.47918,-14.47918 0,-7.99663 6.482549,-14.47918 14.47918,-14.47918 7.99663,0 14.47918,6.48255 14.47918,14.47918 z" id="path3753-6-9" style="fill:#000000;fill-opacity:1;stroke:none"/>
        <path transform="matrix(0.11050349,0,0,-0.11050349,757.11574,111.21802)" d="m -15.56512,51.944229 c 0,7.996631 -6.48255,14.47918 -14.47918,14.47918 -7.996631,0 -14.47918,-6.482549 -14.47918,-14.47918 0,-7.99663 6.482549,-14.47918 14.47918,-14.47918 7.99663,0 14.47918,6.48255 14.47918,14.47918 z" id="path3753-6-9-7" style="fill:#000000;fill-opacity:1;stroke:none"/>
        <path transform="matrix(0.11050349,0,0,-0.11050349,889.91574,111.21802)" d="m -15.56512,51.944229 c 0,7.996631 -6.48255,14.47918 -14.47918,14.47918 -7.996631,0 -14.47918,-6.482549 -14.47918,-14.47918 0,-7.99663 6.482549,-14.47918 14.47918,-14.47918 7.99663,0 14.47918,6.48255 14.47918,14.47918 z" id="path3753-6-9-79" style="fill:#000000;fill-opacity:1;stroke:none"/>
        <path transform="matrix(0.09568301,0.05524261,0.05524261,-0.09568301,853.39549,54.613346)" d="m -15.56512,51.944229 c 0,7.996631 -6.48255,14.47918 -14.47918,14.47918 -7.996631,0 -14.47918,-6.482549 -14.47918,-14.47918 0,-7.99663 6.482549,-14.47918 14.47918,-14.47918 7.99663,0 14.47918,6.48255 14.47918,14.47918 z" id="path3753-6-0" style="fill:#000000;fill-opacity:1;stroke:none"/>
        <path transform="matrix(0.09568301,0.05524261,0.05524261,-0.09568301,787.00647,169.60251)" d="m -15.56512,51.944229 c 0,7.996631 -6.48255,14.47918 -14.47918,14.47918 -7.996631,0 -14.47918,-6.482549 -14.47918,-14.47918 0,-7.99663 6.482549,-14.47918 14.47918,-14.47918 7.99663,0 14.47918,6.48255 14.47918,14.47918 z" id="path3753-6-9-9" style="fill:#000000;fill-opacity:1;stroke:none"/>
        <path transform="matrix(0.09568301,0.05524261,0.05524261,-0.09568301,762.70638,78.91342)" d="m -15.56512,51.944229 c 0,7.996631 -6.48255,14.47918 -14.47918,14.47918 -7.996631,0 -14.47918,-6.482549 -14.47918,-14.47918 0,-7.99663 6.482549,-14.47918 14.47918,-14.47918 7.99663,0 14.47918,6.48255 14.47918,14.47918 z" id="path3753-6-9-7-6" style="fill:#000000;fill-opacity:1;stroke:none"/>
        <path transform="matrix(0.09568301,0.05524261,0.05524261,-0.09568301,877.69557,145.30244)" d="m -15.56512,51.944229 c 0,7.996631 -6.48255,14.47918 -14.47918,14.47918 -7.996631,0 -14.47918,-6.482549 -14.47918,-14.47918 0,-7.99663 6.482549,-14.47918 14.47918,-14.47918 7.99663,0 14.47918,6.48255 14.47918,14.47918 z" id="path3753-6-9-79-6" style="fill:#000000;fill-opacity:1;stroke:none"/>
        <path transform="matrix(0.05524261,0.09568301,0.09568301,-0.05524261,874.37989,78.027791)" d="m -15.56512,51.944229 c 0,7.996631 -6.48255,14.47918 -14.47918,14.47918 -7.996631,0 -14.47918,-6.482549 -14.47918,-14.47918 0,-7.99663 6.482549,-14.47918 14.47918,-14.47918 7.99663,0 14.47918,6.48255 14.47918,14.47918 z" id="path3753-6-1" style="fill:#000000;fill-opacity:1;stroke:none"/>
        <path transform="matrix(0.05524261,0.09568301,0.09568301,-0.05524261,759.39072,144.41682)" d="m -15.56512,51.944229 c 0,7.996631 -6.48255,14.47918 -14.47918,14.47918 -7.996631,0 -14.47918,-6.482549 -14.47918,-14.47918 0,-7.99663 6.482549,-14.47918 14.47918,-14.47918 7.99663,0 14.47918,6.48255 14.47918,14.47918 z" id="path3753-6-9-74" style="fill:#000000;fill-opacity:1;stroke:none"/>
        <path transform="matrix(0.05524261,0.09568301,0.09568301,-0.05524261,783.69079,53.727725)" d="m -15.56512,51.944229 c 0,7.996631 -6.48255,14.47918 -14.47918,14.47918 -7.996631,0 -14.47918,-6.482549 -14.47918,-14.47918 0,-7.99663 6.482549,-14.47918 14.47918,-14.47918 7.99663,0 14.47918,6.48255 14.47918,14.47918 z" id="path3753-6-9-7-2" style="fill:#000000;fill-opacity:1;stroke:none"/>
        <path transform="matrix(0.05524261,0.09568301,0.09568301,-0.05524261,850.07982,168.71689)" d="m -15.56512,51.944229 c 0,7.996631 -6.48255,14.47918 -14.47918,14.47918 -7.996631,0 -14.47918,-6.482549 -14.47918,-14.47918 0,-7.99663 6.482549,-14.47918 14.47918,-14.47918 7.99663,0 14.47918,6.48255 14.47918,14.47918 z" id="path3753-6-9-79-7" style="fill:#000000;fill-opacity:1;stroke:none"/>
      </g>
    </g>
  </g>
</svg>