<?xml version="1.0" encoding="utf-8"?>
<svg viewBox="0 0 500 500" xmlns="http://www.w3.org/2000/svg">
  <polyline points="272.872 19.071 274.216 6.293" id="polyline27" style="fill: none; stroke: rgb(0, 0, 0); stroke-width: 8pt; stroke-dasharray: none;"/>
  <polyline points="296.792 22.858 299.463 10.29" id="polyline32" style="fill: none; stroke: rgb(0, 0, 0); stroke-width: 8pt; stroke-dasharray: none;"/>
  <polyline points="320.185 29.123 324.157 16.903" id="polyline37" style="fill: none; stroke: rgb(0, 0, 0); stroke-width: 8pt; stroke-dasharray: none;"/>
  <polyline points="342.794 37.799 348.022 26.061" id="polyline42" style="fill: none; stroke: rgb(0, 0, 0); stroke-width: 8pt; stroke-dasharray: none;"/>
  <polyline points="364.372 48.788 370.799 37.661" id="polyline47" style="fill: none; stroke: rgb(0, 0, 0); stroke-width: 8pt; stroke-dasharray: none;"/>
  <polyline points="384.683 61.973 392.238 51.579" id="polyline52" style="fill: none; stroke: rgb(0, 0, 0); stroke-width: 8pt; stroke-dasharray: none;"/>
  <polyline points="403.504 77.207 412.105 67.658" id="polyline57" style="fill: none; stroke: rgb(0, 0, 0); stroke-width: 8pt; stroke-dasharray: none;"/>
  <polyline points="420.628 94.326 430.182 85.727" id="polyline62" style="fill: none; stroke: rgb(0, 0, 0); stroke-width: 8pt; stroke-dasharray: none;"/>
  <polyline points="435.87 113.136 446.267 105.584" id="polyline67" style="fill: none; stroke: rgb(0, 0, 0); stroke-width: 8pt; stroke-dasharray: none;"/>
  <polyline points="449.059 133.439 460.191 127.014" id="polyline72" style="fill: none; stroke: rgb(0, 0, 0); stroke-width: 8pt; stroke-dasharray: none;"/>
  <polyline points="460.054 155.008 471.797 149.782" id="polyline77" style="fill: none; stroke: rgb(0, 0, 0); stroke-width: 8pt; stroke-dasharray: none;"/>
  <polyline points="468.733 177.607 480.958 173.637" id="polyline82" style="fill: none; stroke: rgb(0, 0, 0); stroke-width: 8pt; stroke-dasharray: none;"/>
  <polyline points="475.002 200.99 487.573 198.319" id="polyline87" style="fill: none; stroke: rgb(0, 0, 0); stroke-width: 8pt; stroke-dasharray: none;"/>
  <polyline points="478.789 224.899 491.573 223.555" id="polyline92" style="fill: none; stroke: rgb(0, 0, 0); stroke-width: 8pt; stroke-dasharray: none;"/>
  <polyline points="480.057 249.072 492.911 249.072" id="polyline97" style="fill: none; stroke: rgb(0, 0, 0); stroke-width: 8pt; stroke-dasharray: none;"/>
  <polyline points="478.789 273.247 491.573 274.591" id="polyline102" style="fill: none; stroke: rgb(0, 0, 0); stroke-width: 8pt; stroke-dasharray: none;"/>
  <polyline points="475.002 297.157 487.573 299.827" id="polyline107" style="fill: none; stroke: rgb(0, 0, 0); stroke-width: 8pt; stroke-dasharray: none;"/>
  <polyline points="468.733 320.538 480.958 324.51" id="polyline112" style="fill: none; stroke: rgb(0, 0, 0); stroke-width: 8pt; stroke-dasharray: none;"/>
  <polyline points="460.054 343.139 471.797 348.363" id="polyline117" style="fill: none; stroke: rgb(0, 0, 0); stroke-width: 8pt; stroke-dasharray: none;"/>
  <polyline points="449.059 364.707 460.191 371.131" id="polyline122" style="fill: none; stroke: rgb(0, 0, 0); stroke-width: 8pt; stroke-dasharray: none;"/>
  <polyline points="435.87 385.009 446.267 392.561" id="polyline127" style="fill: none; stroke: rgb(0, 0, 0); stroke-width: 8pt; stroke-dasharray: none;"/>
  <polyline points="420.628 403.822 430.182 412.418" id="polyline132" style="fill: none; stroke: rgb(0, 0, 0); stroke-width: 8pt; stroke-dasharray: none;"/>
  <polyline points="403.504 420.938 412.105 430.486" id="polyline137" style="fill: none; stroke: rgb(0, 0, 0); stroke-width: 8pt; stroke-dasharray: none;"/>
  <polyline points="384.683 436.173 392.238 446.567" id="polyline142" style="fill: none; stroke: rgb(0, 0, 0); stroke-width: 8pt; stroke-dasharray: none;"/>
  <polyline points="364.372 449.357 370.799 460.484" id="polyline147" style="fill: none; stroke: rgb(0, 0, 0); stroke-width: 8pt; stroke-dasharray: none;"/>
  <polyline points="342.794 460.346 348.022 472.086" id="polyline152" style="fill: none; stroke: rgb(0, 0, 0); stroke-width: 8pt; stroke-dasharray: none;"/>
  <polyline points="320.185 469.022 324.157 481.243" id="polyline157" style="fill: none; stroke: rgb(0, 0, 0); stroke-width: 8pt; stroke-dasharray: none;"/>
  <polyline points="296.792 475.288 299.463 487.856" id="polyline162" style="fill: none; stroke: rgb(0, 0, 0); stroke-width: 8pt; stroke-dasharray: none;"/>
  <polyline points="272.872 479.074 274.216 491.852" id="polyline167" style="fill: none; stroke: rgb(0, 0, 0); stroke-width: 8pt; stroke-dasharray: none;"/>
  <polyline points="248.688 480.342 248.688 493.19" id="polyline172" style="fill: none; stroke: rgb(0, 0, 0); stroke-width: 8pt; stroke-dasharray: none;"/>
  <polyline points="224.502 479.074 223.159 491.852" id="polyline177" style="fill: none; stroke: rgb(0, 0, 0); stroke-width: 8pt; stroke-dasharray: none;"/>
  <polyline points="200.583 475.288 197.91 487.856" id="polyline182" style="fill: none; stroke: rgb(0, 0, 0); stroke-width: 8pt; stroke-dasharray: none;"/>
  <polyline points="177.19 469.022 173.218 481.243" id="polyline187" style="fill: none; stroke: rgb(0, 0, 0); stroke-width: 8pt; stroke-dasharray: none;"/>
  <polyline points="154.58 460.346 149.352 472.086" id="polyline192" style="fill: none; stroke: rgb(0, 0, 0); stroke-width: 8pt; stroke-dasharray: none;"/>
  <polyline points="133.003 449.357 126.575 460.484" id="polyline197" style="fill: none; stroke: rgb(0, 0, 0); stroke-width: 8pt; stroke-dasharray: none;"/>
  <polyline points="112.691 436.173 105.135 446.567" id="polyline202" style="fill: none; stroke: rgb(0, 0, 0); stroke-width: 8pt; stroke-dasharray: none;"/>
  <polyline points="93.871 420.938 85.27 430.486" id="polyline207" style="fill: none; stroke: rgb(0, 0, 0); stroke-width: 8pt; stroke-dasharray: none;"/>
  <polyline points="76.745 403.822 67.195 412.418" id="polyline212" style="fill: none; stroke: rgb(0, 0, 0); stroke-width: 8pt; stroke-dasharray: none;"/>
  <polyline points="61.505 385.009 51.106 392.561" id="polyline217" style="fill: none; stroke: rgb(0, 0, 0); stroke-width: 8pt; stroke-dasharray: none;"/>
  <polyline points="48.314 364.707 37.183 371.131" id="polyline222" style="fill: none; stroke: rgb(0, 0, 0); stroke-width: 8pt; stroke-dasharray: none;"/>
  <polyline points="37.32 343.139 25.577 348.363" id="polyline227" style="fill: none; stroke: rgb(0, 0, 0); stroke-width: 8pt; stroke-dasharray: none;"/>
  <polyline points="28.642 320.538 16.415 324.51" id="polyline232" style="fill: none; stroke: rgb(0, 0, 0); stroke-width: 8pt; stroke-dasharray: none;"/>
  <polyline points="22.373 297.157 9.8 299.827" id="polyline237" style="fill: none; stroke: rgb(0, 0, 0); stroke-width: 8pt; stroke-dasharray: none;"/>
  <polyline points="18.584 273.247 5.8 274.591" id="polyline242" style="fill: none; stroke: rgb(0, 0, 0); stroke-width: 8pt; stroke-dasharray: none;"/>
  <polyline points="17.316 249.072 4.463 249.072" id="polyline247" style="fill: none; stroke: rgb(0, 0, 0); stroke-width: 8pt; stroke-dasharray: none;"/>
  <polyline points="18.584 224.899 5.8 223.555" id="polyline252" style="fill: none; stroke: rgb(0, 0, 0); stroke-width: 8pt; stroke-dasharray: none;"/>
  <polyline points="22.373 200.99 9.8 198.319" id="polyline257" style="fill: none; stroke: rgb(0, 0, 0); stroke-width: 8pt; stroke-dasharray: none;"/>
  <polyline points="28.642 177.607 16.415 173.637" id="polyline262" style="fill: none; stroke: rgb(0, 0, 0); stroke-width: 8pt; stroke-dasharray: none;"/>
  <polyline points="37.32 155.008 25.577 149.782" id="polyline267" style="fill: none; stroke: rgb(0, 0, 0); stroke-width: 8pt; stroke-dasharray: none;"/>
  <polyline points="48.314 133.439 37.183 127.014" id="polyline272" style="fill: none; stroke: rgb(0, 0, 0); stroke-width: 8pt; stroke-dasharray: none;"/>
  <polyline points="61.505 113.136 51.106 105.584" id="polyline277" style="fill: none; stroke: rgb(0, 0, 0); stroke-width: 8pt; stroke-dasharray: none;"/>
  <polyline points="76.745 94.326 67.195 85.727" id="polyline282" style="fill: none; stroke: rgb(0, 0, 0); stroke-width: 8pt; stroke-dasharray: none;"/>
  <polyline points="93.871 77.207 85.27 67.658" id="polyline287" style="fill: none; stroke: rgb(0, 0, 0); stroke-width: 8pt; stroke-dasharray: none;"/>
  <polyline points="112.691 61.973 105.135 51.579" id="polyline292" style="fill: none; stroke: rgb(0, 0, 0); stroke-width: 8pt; stroke-dasharray: none;"/>
  <polyline points="133.003 48.788 126.575 37.661" id="polyline297" style="fill: none; stroke: rgb(0, 0, 0); stroke-width: 8pt; stroke-dasharray: none;"/>
  <polyline points="154.58 37.799 149.352 26.061" id="polyline302" style="fill: none; stroke: rgb(0, 0, 0); stroke-width: 8pt; stroke-dasharray: none;"/>
  <polyline points="177.19 29.123 173.218 16.903" id="polyline307" style="fill: none; stroke: rgb(0, 0, 0); stroke-width: 8pt; stroke-dasharray: none;"/>
  <polyline points="200.583 22.858 197.91 10.29" id="polyline312" style="fill: none; stroke: rgb(0, 0, 0); stroke-width: 8pt; stroke-dasharray: none;"/>
  <polyline points="224.502 19.071 223.159 6.293" id="polyline317" style="fill: none; stroke: rgb(0, 0, 0); stroke-width: 8pt; stroke-dasharray: none;"/>
  <polyline points="248.688 17.804 248.688 4.956" id="polyline322" style="fill: none; stroke: rgb(0, 0, 0); stroke-width: 8pt; stroke-dasharray: none;"/>
  <polyline points="345.092 82.17 370.799 37.661" id="polyline327" style="fill: none; stroke: rgb(0, 0, 0); stroke-width: 12pt; stroke-dasharray: none;"/>
  <polyline points="415.664 152.711 460.191 127.014" id="polyline332" style="fill: none; stroke: rgb(0, 0, 0); stroke-width: 12pt; stroke-dasharray: none;"/>
  <polyline points="441.496 249.072 492.911 249.072" id="polyline337" style="fill: none; stroke: rgb(0, 0, 0); stroke-width: 12pt; stroke-dasharray: none;"/>
  <polyline points="415.664 345.435 460.191 371.131" id="polyline342" style="fill: none; stroke: rgb(0, 0, 0); stroke-width: 12pt; stroke-dasharray: none;"/>
  <polyline points="345.092 415.977 370.799 460.484" id="polyline347" style="fill: none; stroke: rgb(0, 0, 0); stroke-width: 12pt; stroke-dasharray: none;"/>
  <polyline points="248.688 441.796 248.688 493.19" id="polyline352" style="fill: none; stroke: rgb(0, 0, 0); stroke-width: 12pt; stroke-dasharray: none;"/>
  <polyline points="152.283 415.977 126.575 460.484" id="polyline357" style="fill: none; stroke: rgb(0, 0, 0); stroke-width: 12pt; stroke-dasharray: none;"/>
  <polyline points="81.71 345.435 37.183 371.131" id="polyline362" style="fill: none; stroke: rgb(0, 0, 0); stroke-width: 12pt; stroke-dasharray: none;"/>
  <polyline points="55.878 249.072 4.463 249.072" id="polyline367" style="fill: none; stroke: rgb(0, 0, 0); stroke-width: 12pt; stroke-dasharray: none;"/>
  <polyline points="81.71 152.711 37.183 127.014" id="polyline372" style="fill: none; stroke: rgb(0, 0, 0); stroke-width: 12pt; stroke-dasharray: none;"/>
  <polyline points="152.283 82.17 126.575 37.661" id="polyline377" style="fill: none; stroke: rgb(0, 0, 0); stroke-width: 12pt; stroke-dasharray: none;"/>
  <polyline points="248.688 56.349 248.688 4.956" id="polyline382" style="fill: none; stroke: rgb(0, 0, 0); stroke-width: 12pt; stroke-dasharray: none;"/>
</svg>