<?xml version="1.0" encoding="utf-8"?>
<svg viewBox="5.919 6.293 485.945 486.945" xmlns="http://www.w3.org/2000/svg">
  <path fill="none" stroke="#000" stroke-width="4" d="M 273.02 19.734 L 274.289 7.627 M 296.883 23.521 L 299.408 11.613 M 320.22 29.789 L 323.973 18.21 M 342.776 38.464 L 347.717 27.343 M 364.303 49.455 L 370.378 38.913 M 384.567 62.641 L 391.707 52.793 M 403.343 77.877 L 411.471 68.83 M 420.427 94.996 L 429.456 86.851 M 435.632 113.811 L 445.459 106.657 M 448.79 134.117 L 459.311 128.029 M 459.759 155.688 L 470.857 150.736 M 468.416 178.29 L 479.971 174.529 M 474.67 201.675 L 486.555 199.145 M 478.45 225.588 L 490.533 224.316 M 479.715 249.765 L 491.864 249.765 M 478.45 273.943 L 490.533 275.216 M 474.67 297.856 L 486.555 300.386 M 468.416 321.241 L 479.971 325.002 M 459.759 343.843 L 470.857 348.795 M 448.79 365.414 L 459.311 371.502 M 435.632 385.72 L 445.459 392.874 M 420.427 404.535 L 429.456 412.68 M 403.343 421.654 L 411.471 430.701 M 384.567 436.89 L 391.707 446.738 M 364.303 450.075 L 370.378 460.618 M 342.776 461.067 L 347.717 472.187 M 320.22 469.742 L 323.973 481.321 M 296.883 476.01 L 299.408 487.918 M 273.02 479.796 L 274.289 491.904 M 248.891 481.064 L 248.891 493.238 M 224.763 479.796 L 223.494 491.904 M 200.9 476.01 L 198.375 487.918 M 177.563 469.742 L 173.81 481.321 M 155.007 461.067 L 150.066 472.187 M 133.48 450.075 L 127.405 460.618 M 113.216 436.89 L 106.076 446.738 M 94.44 421.654 L 86.312 430.701 M 77.356 404.535 L 68.327 412.68 M 62.151 385.72 L 52.324 392.874 M 48.992 365.414 L 38.472 371.502 M 38.024 343.843 L 26.925 348.795 M 29.367 321.241 L 17.812 325.002 M 23.112 297.856 L 11.228 300.386 M 19.332 273.943 L 7.25 275.216 M 18.068 249.765 L 5.919 249.765 M 19.332 225.588 L 7.25 224.316 M 23.112 201.675 L 11.228 199.145 M 29.367 178.29 L 17.812 174.529 M 38.024 155.688 L 26.925 150.736 M 48.992 134.117 L 38.472 128.029 M 62.151 113.811 L 52.324 106.657 M 77.356 94.996 L 68.327 86.851 M 94.44 77.877 L 86.312 68.83 M 113.216 62.641 L 106.076 52.793 M 133.48 49.455 L 127.405 38.913 M 155.007 38.464 L 150.066 27.343 M 177.563 29.789 L 173.81 18.21 M 200.9 23.521 L 198.375 11.613 M 224.763 19.734 L 223.494 7.627 M 248.891 18.467 L 248.891 6.293" style=""/>
  <path fill="none" stroke="#000" stroke-width="5pt" d="M 358.229 59.998 L 370.378 38.913 M 438.27 140.203 L 459.311 128.029 M 467.566 249.765 L 491.864 249.765 M 438.27 359.328 L 459.311 371.502 M 358.229 439.533 L 370.378 460.618 M 248.891 468.89 L 248.891 493.238 M 139.554 439.533 L 127.405 460.618 M 59.513 359.328 L 38.472 371.502 M 30.217 249.765 L 5.919 249.765 M 59.513 140.203 L 38.472 128.029 M 139.554 59.998 L 127.405 38.913 M 248.891 30.641 L 248.891 6.293" style=""/>
  <text x="321.486" y="121.655" font-family="Helvetica" font-size="87.5" text-anchor="middle" style="white-space: pre; font-size: 40.5px;" transform="matrix(1.2211370468139648, 0, 0, 1.223649024963379, -47.71207809448242, -47.90608596801758)">1</text>
  <text x="379.02" y="179.19" font-family="Helvetica" font-size="87.5" text-anchor="middle" style="white-space: pre; font-size: 40.5px;" transform="matrix(1.2211370468139648, 0, 0, 1.223649024963379, -47.71207809448242, -47.90608596801758)">2</text>
  <text x="400.079" y="257.784" font-family="Helvetica" font-size="87.5" text-anchor="middle" style="white-space: pre; font-size: 40.5px;" transform="matrix(1.2211370468139648, 0, 0, 1.223649024963379, -47.71207809448242, -47.90608596801758)">3</text>
  <text x="379.02" y="336.378" font-family="Helvetica" font-size="87.5" text-anchor="middle" style="white-space: pre; font-size: 40.5px;" transform="matrix(1.2211370468139648, 0, 0, 1.223649024963379, -47.71207809448242, -47.90608596801758)">4</text>
  <text x="321.486" y="393.913" font-family="Helvetica" font-size="87.5" text-anchor="middle" style="white-space: pre; font-size: 40.5px;" transform="matrix(1.2211370468139648, 0, 0, 1.223649024963379, -47.71207809448242, -47.90608596801758)">5</text>
  <text x="242.891" y="414.972" font-family="Helvetica" font-size="87.5" text-anchor="middle" style="white-space: pre; font-size: 40.5px;" transform="matrix(1.2211370468139648, 0, 0, 1.223649024963379, -47.71207809448242, -47.90608596801758)">6</text>
  <text x="164.297" y="393.913" font-family="Helvetica" font-size="87.5" text-anchor="middle" style="white-space: pre; font-size: 40.5px;" transform="matrix(1.2211370468139648, 0, 0, 1.223649024963379, -47.71207809448242, -47.90608596801758)">7</text>
  <text x="106.763" y="336.378" font-family="Helvetica" font-size="87.5" text-anchor="middle" style="white-space: pre; font-size: 40.5px;" transform="matrix(1.2211370468139648, 0, 0, 1.223649024963379, -47.71207809448242, -47.90608596801758)">8</text>
  <text x="85.704" y="257.784" font-family="Helvetica" font-size="87.5" text-anchor="middle" style="white-space: pre; font-size: 40.5px;" transform="matrix(1.2211370468139648, 0, 0, 1.223649024963379, -47.71207809448242, -47.90608596801758)">9</text>
  <text x="112.732" y="179.19" font-family="Helvetica" font-size="87.5" text-anchor="middle" style="white-space: pre; font-size: 40.5px;" transform="matrix(1.2211370468139648, 0, 0, 1.223649024963379, -47.71207809448242, -47.90608596801758)">10</text>
  <text x="170.267" y="121.655" font-family="Helvetica" font-size="87.5" text-anchor="middle" style="white-space: pre; font-size: 40.5px;" transform="matrix(1.2211370468139648, 0, 0, 1.223649024963379, -47.71207809448242, -47.90608596801758)">11</text>
  <text x="242.891" y="100.596" font-family="Helvetica" font-size="87.5" text-anchor="middle" style="white-space: pre; font-size: 40.5px;" transform="matrix(1.2211370468139648, 0, 0, 1.223649024963379, -47.71207809448242, -47.90608596801758)">12</text>
</svg>