<?xml version="1.0" encoding="utf-8"?>
<svg viewBox="0 0 4000 4000" xmlns="http://www.w3.org/2000/svg">
  <defs>
    <style>.cls-1,.cls-2{fill:#fff;}.cls-1,.cls-3{stroke:#000;stroke-miterlimit:10;}.cls-3{fill:none;stroke-width:5px;}</style>
  </defs>
  <g id="Layer_2" data-name="Layer 2" transform="matrix(0.9999999999999999, 0, 0, 0.9999999999999999, 0, -4.547473508864641e-13)">
    <circle class="cls-3" cx="2002.74" cy="2025.63" r="1158.48"/>
    <path d="M2891.87,492.9c-12.63-6.81-24.38-13.59-33.34-19.24-3.67-2.31-7-4.48-9.52-6.3l-6.89,12.72a32.77,32.77,0,0,1,8.27,7.55c6.78,9.34,2.46,22.31-17,58.36L2663,861.74c-8.86,16.41-15.36,27.42-21,34.7-4.5,5.86-8.46,9.28-12.43,10.73-5,1.84-10.18.81-16.91-1.95l-6.86,12.72c3.71,1.41,8.61,3.61,13.93,6.11,5.62,2.63,11.75,5.64,18.44,9.09,4.07,2.1,8.25,4.31,12.49,6.59,1.87,1,3.73,2.07,5.59,3.1,13.71,7.59,27.27,15.65,35.54,21.54l6.86-12.76c-16.64-11.38-16.38-19.66,8.6-66l170.42-315.71c25-46.32,31.65-51.16,50.44-43.41l6.89-12.76c-6-2.34-14.05-6.05-22.62-10.29C2905.68,500.15,2898.67,496.56,2891.87,492.9Z"/>
    <path d="M3515.33,1080.24c-10.54-17.24-19.86-33.81-24.21-43.62l-12.37,7.57c8.59,18,4.21,25.09-40.68,52.56l-306,187.29c-44.89,27.47-53.06,28.31-65.35,12.33l-12.34,7.57c6.76,8.34,17.28,24.14,27.82,41.38,2.39,3.91,4.78,7.89,7.09,11.86,3.67,6.27,7,12.33,10,17.92,2.38,4.48,4.55,8.72,6.12,12.17l12.33-7.57c-2.4-5-3.63-9.21-3.44-13.21.47-10.45,11.59-19.62,44.06-39.49l247.25-151.33,58.77-36c19.71-12.07,32.12-18.74,41.13-21.36,11.5-3.34,17.33.11,24.27,9.16l12.37-7.57c-3.3-4.12-7.31-9.76-11.53-16C3525.62,1096.59,3520.32,1088.36,3515.33,1080.24Z"/>
    <path d="M3562.67,1156.52c-4.08-7.33-7.42-13.79-9.56-18.6l-12.34,7.57c4.69,9.86,5.2,16.51-2.33,24.94-6.26,7-18,15.19-38.35,27.66l-306,187.28c-39.22,24-50.41,27.67-60.81,17.54a48.66,48.66,0,0,1-4.54-5.24l-12.37,7.57c1.15,1.42,2.54,3.32,3.89,5.14,6.6,8.89,15.19,22,24,36.28,9.2,15,18.43,31.47,23.17,41.94l12.37-7.57c-8.68-18.25-4.28-25.26,40.61-52.73l306-187.29c44.89-27.47,53.05-28.31,65.42-12.16l12.34-7.57c-7.15-9-17.59-24.7-26.77-39.7C3572,1172.78,3566.91,1164.18,3562.67,1156.52Z"/>
    <path d="M3768.64,1859.89c-2.12,19.9-9.53,23.62-62.14,23.62H3347.7c-52.61,0-60-3.54-62.16-23.62h-14.47c.73,5.45,1.26,13.13,1.61,22,.25,6.32.38,13.33.44,20.55,0,2.44.07,4.82.07,7.31,0,17.63-.7,36.44-2.12,47.87h14.47c2.12-20.08,9.55-23.76,62.16-23.76h358.8c52.61,0,60,3.54,62.14,23.76h14.49c-1.42-11.43-2.12-30.24-2.12-47.87,0-20.22.7-39.21,2.12-49.86Z"/>
    <path d="M3783.13,1978.67h-14.49c-.61,5.76-1.84,10-4.31,13.39-6,8.23-20.44,10.23-57.83,10.23H3347.7c-37.51,0-51.88-1.92-57.91-10.23-2.42-3.34-3.64-7.62-4.25-13.39h-14.47c.47,3.55.84,8.26,1.15,13.39.37,6.11.65,13,.81,20.5.1,5.16.16,10.5.16,16,0,1.51,0,3-.05,4.55,0,7-.18,13.92-.44,20.5-.35,8.8-.89,16.84-1.63,22.81h14.47c1.58-15,6.17-20.79,30.1-22.81,8.2-.69,18.63-.94,32.06-.94h358.8c13.53,0,24,.25,32.22.94,23.77,2,28.35,7.8,29.92,22.81h14.49c-.74-6-1.28-14-1.63-22.81-.32-8-.49-16.65-.49-25.05,0-13.49.34-26.2,1-36.48C3782.29,1986.93,3782.66,1982.22,3783.13,1978.67Z"/>
    <path d="M3768.64,2097.46c-2.12,19.91-9.53,23.62-62.14,23.62H3347.7c-52.61,0-60-3.54-62.16-23.62h-14.47c1.36,10.2,2,28.09,2.1,47.33,0,.86,0,1.67,0,2.53,0,6-.11,12.1-.28,18-.31,11.49-.9,22.3-1.84,29.82h14.47c2.12-20.08,9.55-23.76,62.16-23.76h358.8c52.61,0,60,3.54,62.14,23.76h14.49c-1.42-11.42-2.12-30.24-2.12-47.87,0-20.21.7-39.21,2.12-49.86Z"/>
    <path d="M3518.07,2763.16,3203,2591.49c-34.13-18.6-45.59-27.11-46.17-37.79-.21-3.78.89-7.82,2.92-12.7l-12.73-6.94c-1.32,3.45-3.35,7.92-5.62,12.76-4.35,9.25-10,20.38-16.38,32-8.43,15.49-18.06,31.68-24.76,41.07l12.72,6.91c11.46-16.62,19.71-16.33,65.93,8.86L3494,2807.34c46.22,25.2,51,31.85,43.22,50.64l12.68,6.93c4.24-10.72,12.65-27.61,21.08-43,9.67-17.76,19.36-34.13,25.69-42.82l-12.69-6.9C3572.57,2788.67,3564.29,2788.35,3518.07,2763.16Z"/>
    <path d="M3524.42,2867.16c-7.73.61-20-1.15-40.5-8.1l-233.31-78-202.78-67.83a89,89,0,0,1-10.49,19.27l330.77,256.39c43.38,33.32,58.78,54.56,61.57,66.4l12.68,6.94c1.81-6.24,5.28-14,9.69-22.15a388.22,388.22,0,0,1,20.68-33.56l-12.69-6.94c-9,14.29-27.3,15.38-62.62-3.86-18.92-10.3-42.74-26.45-72.72-49.65L3132.48,2797l311.09,105.86c13.91,4.76,24.37,9.11,31.52,13,18.33,10,18.75,18.85,12.95,32.38l12.68,6.94c2.28-6,6.33-14.59,11.18-24.17,3.07-6,6.38-12.4,10-19,6.82-12.56,14-24.56,20.49-34.48,1.44-2.2,3-4.93,4.37-6.84l-12.69-6.9C3532.68,2865.67,3529.24,2866.77,3524.42,2867.16Z"/>
    <path d="M2963.61,3489.43l-234.3-261.31-72.69-81.06a103.78,103.78,0,0,1-8.95,6.37c-3.15,2-6.61,3.68-9.69,5.19L2688.91,3281l109.89,264c21.23,50.42,24.1,76.46,20.67,88.16l7.6,12.3a119.2,119.2,0,0,1,19.38-14.47,390.35,390.35,0,0,1,34.59-19l-7.64-12.3c-14.86,8-31.33-.1-52.51-34.31-11.35-18.35-24.07-44.11-38.67-79.11l-65.69-158-27.72-66.65L2864,3459.23l42.87,48.32c9.72,11,16.71,19.9,21,26.84,9.8,15.78,7.29,23.77-1.6,31.65-1.09,1-1.87,1.93-3.14,2.9l7.6,12.26c.84-.68,2-1.55,3-2.31,8.49-6.57,21.89-15.57,36.72-24.74s30.53-18.11,42-23.61l-7.64-12.3C2999.3,3520.9,2987,3515.68,2963.61,3489.43Z"/>
    <path d="M2168.18,3744.7,2087.59,3292a106.15,106.15,0,0,1-11,.7,109,109,0,0,1-11-.7l-43.82,270.79-23,142.37c-8.5,54-19.76,77.69-28.87,85.82v14.47a117.61,117.61,0,0,1,24.09-2.1c9.35,0,18.39.48,27.82,1.19,3.8.29,7.46.5,11.55.91V3791a21.92,21.92,0,0,1-11.55-3.95c-9.63-6.84-15-23.05-15-52.89,0-21.55,2.78-50.18,8.81-87.6l6.2-38.29,32.69-201.84,55.91,323.84q3.71,21.7,3.7,33.88c0,20.85-7.57,25.44-22.24,26.85v14.47c10.36-1.4,28.56-2.1,48-2.1,17.45,0,35.51.7,48.16,2.1V3791C2181.93,3790.26,2174.21,3779.32,2168.18,3744.7Z"/>
    <path d="M1912.7,3295.49c-15.19,0-31-.56-42.46-1.6-1.83-.17-3.83-.31-5.4-.5v14.47c1.44.15,2.62.42,3.89.64,16.5,2.88,19.88,12.67,19.88,61.52v358.77c0,52.63-3.56,60.06-23.77,62.17v14.47c11.42-1.4,30.25-2.1,47.86-2.1,19,0,36.69.64,47.62,1.88.69.08,1.61.13,2.24.22V3791c-.83-.09-1.47-.27-2.24-.38-17.82-2.5-21.37-11.35-21.37-61.79V3370c0-50.46,3.41-59.26,21.37-61.79.78-.11,1.41-.29,2.24-.37v-14.47c-.63.08-1.55.13-2.24.21C1949.39,3294.84,1931.72,3295.49,1912.7,3295.49Z"/>
    <path d="M1451.68,3200.32a107.51,107.51,0,0,1-8.38-7.08l-229.64,224.32-69.78,68.16c-35.85,35.39-58.2,48.48-71,51.21a26.85,26.85,0,0,1-3.19.61l-8.58,11.64c1.06.48,2.37,1.31,3.52,1.9a125.69,125.69,0,0,1,17.09,10.75,381.87,381.87,0,0,1,30.4,25.09l8.59-11.64c-12.9-10.82-11.49-29.15,12.44-61.49,12.8-17.35,32.09-38.69,59.14-65.21l7.67-7.49,166.41-162.46-147.58,293.6c-6.66,13.11-12.36,23-17.19,29.47-12.39,16.79-21.19,16-33.83,8.38l-8.59,11.63c9.13,5,24.2,15.28,39.83,26.84,14,10.37,28.17,21.69,37.51,30.35l8.58-11.64c-4.5-4.24-4.2-17.62,11.49-49.05L1459.09,3210l1.84-3.7c-2.14-1.28-4.45-2.81-6.72-4.33C1453.35,3201.37,1452.53,3200.94,1451.68,3200.32Z"/>
    <path d="M1339.47,3120.3c-5.28-3.62-11-7.65-16.8-11.91-1.5-1.1-3-2.12-4.46-3.24C1304,3094.67,1289.3,3082.9,1281,3075l-8.6,11.63c14.89,13.67,13.44,21.8-17.86,64.13l-213.28,288.48c-31.3,42.33-38.55,46.18-56.07,35.85l-8.58,11.67c10,5.64,25.56,16.25,39.75,26.73,16.26,12,31.08,23.9,38.84,31.36l8.59-11.66c-14.75-13.53-13.32-21.7,18-64l144.86-196,68.43-92.56c16.17-21.86,25.89-33.32,33.94-38,7-4.1,12.87-2.93,20.47,1.29.53.29,1,.46,1.54.78l8.59-11.63c-.81-.45-1.91-1.16-2.82-1.69C1351.94,3128.6,1346.12,3124.85,1339.47,3120.3Z"/>
    <path d="M1233.88,3042.65q-5.49-3.9-11.19-8.11c-14.19-10.47-28.91-22.25-37.25-30.17l-8.6,11.64c14.89,13.63,13.47,21.79-17.82,64.12L945.73,3368.62c-31.29,42.29-38.58,46.18-56.1,35.84l-8.58,11.64c10,5.67,25.56,16.29,39.75,26.77,16.26,12,31.12,23.86,38.84,31.32l8.59-11.63c-14.76-13.53-13.32-21.73,18-64l213.29-288.49c12.61-17.05,21.23-27.63,28.27-33.79,4.36-3.82,8.15-5.89,11.77-6.52,5-.87,9.85.81,15.9,4.36l8.61-11.63c-3.55-2-8.18-4.9-13.21-8.21C1245.63,3050.85,1240,3047,1233.88,3042.65Z"/>
    <path d="M969.63,2792.14,581.45,2948.69c-50.59,20.71-76.7,23.31-88.35,19.7l-12.39,7.5c4.49,4.69,9.46,11.59,14.3,19.55a385.43,385.43,0,0,1,18.54,34.76l12.38-7.5c-7.79-14.93.44-31.33,34.9-52.14,18.43-11.14,44.36-23.55,79.49-37.81L866,2841.85,617.75,3057.21q-16.65,14.4-27.08,20.71c-17.82,10.79-25.65,6.69-34.46-5.15l-12.39,7.5c6.55,8.1,16.57,23.34,26.67,40,9,14.93,17.76,30.77,23.1,42.33l12.39-7.5c-2.59-5.64,2.79-17.9,29.29-41L981,2810.92a107.36,107.36,0,0,1-6.29-9.05A103.2,103.2,0,0,1,969.63,2792.14Z"/>
    <path d="M889.66,2666.64c-.74-1.2-1.46-2.34-2.2-3.56-2.81-4.65-5.57-9.39-8.26-14.09-3.62-6.34-7-12.5-9.84-18-1.87-3.65-3.56-7.06-4.85-10l-12.41,7.5a33.67,33.67,0,0,1,3.29,10.47c1.34,11.67-8.83,20.61-44.18,42l-307,185.67c-45,27.2-53.19,28-65.47,11.81l-12.39,7.5c7.11,9,17.45,24.78,26.59,39.88,2.31,3.81,4.52,7.56,6.66,11.24,7.58,13,13.95,24.82,17.31,32.52l12.39-7.5c-8.46-18.15-4-25.15,41-52.34l307-185.68c45-27.23,53.19-28,65.39-11.92l12.4-7.5c-3.83-4.78-8.91-12.13-14.46-20.64C897.1,2678.64,893.42,2672.79,889.66,2666.64Z"/>
    <path d="M821.43,2553.71c-3.61-6.16-7-12.2-10.11-17.93-3.31-6.14-6.25-11.87-8.27-16.4l-12.41,7.5c8.59,18.26,4.14,25.23-40.89,52.45L442.73,2765c-45,27.26-53.19,28.06-65.47,11.84l-12.39,7.5c7.11,9,17.45,24.81,26.6,39.88,10.44,17.31,19.65,33.91,24,43.76l12.39-7.5c-8.5-18.11-4.05-25.12,41-52.38l307-185.65c45-27.22,53.19-28,65.39-11.91l12.4-7.5c-6.73-8.37-17.15-24.28-27.61-41.59C824.46,2558.89,823,2556.29,821.43,2553.71Z"/>
    <path d="M741.59,2417.73l-12.41,7.5c8.59,18.26,4.14,25.23-40.89,52.45l-307,185.68c-45,27.19-53.19,28-65.47,11.81l-12.39,7.5c7.11,9,17.45,24.81,26.56,39.88,10.48,17.3,19.69,33.91,24,43.76l12.39-7.5c-8.5-18.12-4.05-25.16,41-52.35l307-185.68c45-27.22,53.19-28,65.39-11.91l12.4-7.5c-6.73-8.37-17.15-24.28-27.63-41.59C755.41,2444.71,746.28,2428.24,741.59,2417.73Z"/>
    <path d="M734.76,2099.25H720.28c-2.12,20.08-9.55,23.76-62.16,23.76H299.33c-52.62,0-60-3.54-62.15-23.76H222.69c1.42,11.42,2.13,30.24,2.13,47.86,0,20.22-.71,39.21-2.13,49.87h14.49c2.12-19.91,9.53-23.62,62.15-23.62H658.12c52.61,0,60,3.54,62.16,23.62h14.48c-1.08-8.09-1.74-21-2-35.58-.08-4.63-.13-9.41-.13-14.29,0-2.09,0-4.2.06-6.31C732.84,2125.12,733.5,2109.32,734.76,2099.25Z"/>
    <path d="M733.28,1882.72c.56-6.64,1.16-12.48,1.48-16.21h-15.2c-.93,5.76-5,9.17-15.29,13.22-2,.77-4,1.6-6.48,2.44-4.11,1.39-8.49,2.82-14.25,4.56L435.65,1961l-122.9-40.48c-35.66-11.56-66.39-25.92-75.57-39.84H222.69c1.42,6.66,2.13,17.14,2.13,29.19a392.27,392.27,0,0,1-2.13,39.7h14.49c2.12-14.68,15.54-23,39.91-23,18.37,0,43.09,4.63,73.1,15l72,23.34-90.74,27.19L265.08,2012c-5.65,1.69-9.89,2.46-13.77,2.46-9.89,0-13.78-6.17-13.78-20.22H222.34c1.07,10.65,2.84,29.78,2.84,48.49,0,3.61-.13,7.27-.28,10.9-.57,13.93-2,27.3-2.56,34.17h15.19c1.42-8.66,8.48-11.88,36-20.22l46.88-13.95,182-54.14,129.61,42c12.3,4.11,23.29,8.16,33.18,12.16,28.44,11.53,47,22.67,55.1,33.57h14.48c-1.42-6.66-2.13-17-2.13-29,0-1.12,0-3,.06-4.52.06-5.54.21-12.68.5-20.5.28-7.6.7-14.76,1.2-20.53.13-1.44.23-3.28.37-4.45H720.28c-.21,1.65-1.22,2.93-1.72,4.45-3.24,9.89-12,17.28-26.91,20.53a96,96,0,0,1-20.46,2c-19.43,0-44.85-4.48-75.58-14.54l-79.1-25.29,10.82-3.23,167.51-49.9c5.31-1.54,9.18-2.31,12.72-2.31,9.53,0,12,6.62,12,20.85h15.2c-.71-9.74-2.83-31.5-2.83-51,0-2.17.12-4.35.18-6.54C732.32,1896,732.74,1889,733.28,1882.72Z"/>
    <path d="M885,1295.74,720.12,1258l-87.35-20-57.11-62.93-29.84-32.87c-25.34-27.68-45-55.3-46.13-71.94l-12.58-7.12c-2.05,6.45-6.64,15.91-12.56,26.42-3.15,5.53-7.76,13.07-12.48,20.34-3.05,4.7-6.14,9.33-8.93,13.13l12.58,7.11c4.14-5.32,9.83-8,16.61-8.62,8.13-.71,17.9,1.75,29.46,8.31s24.73,16.9,39.05,31c5.57,5.49,11.27,11.42,17.16,18.09l51.16,55.78-105.08-24-54.85-12.52A47.33,47.33,0,0,1,446,1193.6c-8.3-4.71-8.75-11.79-2.51-23.3.21-.39.27-.69.5-1.09l-13.21-7.46c-.13.28-.32.7-.45,1-4.39,9.92-12.05,26.76-21,42.55-8.62,15.18-19.8,30.66-24.7,37.81l13.21,7.5c5.5-6.8,13.26-6.17,41.31.18l232.68,53.64,92,100.43c33.66,37.35,52,65.14,54.28,83.32l4.42,2.5,8.16,4.62c.07-.23.26-.59.34-.83,2.14-6.41,6.42-15.35,12.15-25.45,5.17-9.15,19.33-32.7,26.49-42.47l-12.58-7.15c-10.07,13.46-29.89,14.08-56-.7-16.89-9.57-36.79-26-58.58-49.9l-52.84-57.26-3.49-3.78,181.31,41.73c5.4,1.27,9.13,2.53,12.22,4.28,7.44,4.21,7,10.49,1.88,20.58-.6,1.17-1,2.17-1.71,3.46l13.21,7.5c.43-.9,1.09-2.33,1.61-3.44,2.26-4.82,5.22-11.2,8.8-18.6,3.7-7.66,7.88-16,12.26-23.69,8.31-14.65,19.06-29.3,23.78-36.2l-13.21-7.5C920.85,1302.71,913.11,1302.05,885,1295.74Z"/>
    <path d="M1363.51,861.17l-31-29.26L1175.24,683.63,1148.82,557c-4.07-19.19-6.69-37.39-7.32-52.71-.57-14,.5-25.56,4-32.68l-7.24-12.55c-3.65,3.3-9.66,7.37-16.42,11.59-2.57,1.62-4.92,3.18-7.79,4.85-9.11,5.22-24.42,13.28-35.42,18l7.23,12.54c13.75-5.5,27.68,2,39.88,23.06,9.18,15.91,17.52,39.63,23.58,70.78l13.51,63.24,2.31,10.8L1045.84,561.37a47.45,47.45,0,0,1-9-10.69c-4.94-8.55-1.52-15,10.65-22l-7.6-13.14c-8.69,6.24-24.39,17.31-40.58,26.63-15.1,8.72-32.6,16.4-40.43,20.15l7.57,13.13c8.19-3.15,14.54,1.37,35.53,21.06l173.39,164.17,28.42,133.19c10.07,49.26,11.79,82.51,4.57,99.34l7.24,12.5a117.75,117.75,0,0,1,13.37-9.65c3.35-2.16,6.74-4.34,10.72-6.64,1.72-1,4.37-2.47,7-3.93,11.18-6.21,28.37-15.38,37.37-19.3l-7.22-12.51c-15.52,6.48-32.94-3-48-29-9.71-16.82-18.56-41.07-25.21-72.71L1186,770.8l88.4,83.64,46.75,44.23c4,3.82,6.61,6.79,8.38,9.84,4.7,8.16.29,13.6-11.62,20.57l-.44.28,7.61,13.11.45-.32c3.93-2.65,9.93-6.85,17-11.6,5.35-3.61,11.24-7.39,17.26-11.11,2.67-1.65,5.34-3.33,8-4.87,3.21-1.85,6.51-3.61,9.8-5.32,11.68-6,23.14-11,29.06-13.84L1399,882.27C1390.85,885.35,1384.51,880.87,1363.51,861.17Z"/>
    <path d="M1438.08,788.75,1258.67,478c-26.31-45.55-26.94-53.75-10.47-65.7L1241,399.8c-9.2,6.94-25.16,17-40.4,25.75-17.5,10.1-34.32,19-44.24,23.13l7.24,12.55c18.31-8.17,25.23-3.58,51.54,42l179.39,310.7c26.32,45.59,26.93,53.79,10.62,65.7l7.23,12.48c8.54-6.52,24.62-16.61,42.14-26.7l1.26-.71c6-3.44,12.09-6.81,18-10,8.79-4.69,17.07-8.85,23.24-11.48l-7.24-12.51C1471.3,838.89,1464.4,834.33,1438.08,788.75Z"/>
    <path d="M1960.32,724.64c-1.68-4.68-3.5-10.36-5.69-17.61l-74.27-247.91,40.45-122.89c11.5-35.39,25.72-65.82,39.51-75.25.1-.08.21-.26.32-.33V246.18l-.32,0c-6.65,1.37-17,2.07-28.85,2.07a397.13,397.13,0,0,1-39.69-2.11v14.47c14.67,2.11,23,15.53,23,39.92,0,18.36-4.63,43.06-15,73.09l-23.31,72-47.08-157.15c-1.7-5.65-2.47-9.88-2.47-13.77,0-9.89,6.17-13.77,20.22-13.77V245.83c-10.65,1-29.8,2.8-48.48,2.8-17.45,0-36.44-2.1-45.08-2.8V261c8.64,1.4,11.88,8.47,20.22,36l68.08,228.85-42,129.58c-15.89,47.69-31,77.34-45.7,88.3v14.47c6.64-1.4,17-2.1,29-2.1,10.49,0,38,.7,50,2.1V743.75c-16.68-2.13-27-19.06-27-49.09,0-19.41,4.47-44.85,14.51-75.58L1846.07,540l53.12,178.31c1.54,5.3,2.32,9.18,2.32,12.72,0,9.54-6.65,12-20.85,12v15.17c9.74-.7,31.5-2.83,51-2.83,10,0,20.14.75,28.7,1.51,5.88.52,11.13,1,14.53,1.32V743.05C1968.48,742,1965,737.75,1960.32,724.64Z"/>
    <path d="M2021.85,248.2c-16.51-.19-31.45-.84-40.4-2v14.47c19.92,2.11,23.62,9.54,23.62,62.17V681.59c0,24.6-.86,39.07-3.73,48-3.28,10.16-9.2,13-19.89,14.17v14.47c5-.65,12-1.14,19.89-1.49,6.27-.28,13.22-.44,20.51-.52,3.14,0,6.24-.09,9.46-.09,17.61,0,36.44.7,47.87,2.1V743.75c-20.06-2.13-23.78-9.53-23.78-62.16V322.82c0-52.63,3.56-60.06,23.78-62.17V246.18c-11.43,1.4-30.26,2.11-47.87,2.11C2028.09,248.29,2025,248.24,2021.85,248.2Z"/>
    <path d="M2100.24,246.18v14.47c19.92,2.11,23.61,9.54,23.61,62.17V681.59c0,23.55-.81,37.72-3.39,46.74-1.61,5.63-3.94,9.32-7.29,11.55s-7.45,3.29-12.93,3.87v14.47c3-.4,6.9-.72,11.14-1,6-.4,13.08-.69,20.7-.86,5.8-.14,11.79-.23,18-.23,17.61,0,36.44.7,47.86,2.1V743.75c-20.06-2.13-23.77-9.53-23.77-62.16V322.82c0-52.63,3.55-60.06,23.77-62.17V246.18c-11.42,1.4-30.25,2.11-47.86,2.11C2129.88,248.29,2110.89,247.58,2100.24,246.18Z"/>
  </g>
  <path d="M 1999.871 0.347 C 898.571 0.347 2.601 896.307 2.601 1997.597 C 2.601 3098.887 898.601 3994.847 1999.871 3994.847 C 3101.141 3994.847 3997.131 3098.887 3997.131 1997.597 C 3997.131 896.307 3101.131 0.347 1999.871 0.347 Z M 3972.321 2190.817 L 3899.071 2183.257 C 3903.538 2137.157 3906.361 2090.604 3907.541 2043.597 L 3981.181 2043.597 C 3980.041 2093.137 3977.088 2142.21 3972.321 2190.817 Z M 3613.941 3146.437 L 3554.191 3103.437 C 3580.264 3066.91 3605.048 3029.44 3628.541 2991.027 L 3692.331 3027.857 C 3667.584 3068.357 3641.454 3107.884 3613.941 3146.437 Z M 3479.651 3314.437 L 3424.931 3265.227 C 3466.264 3218.787 3505.324 3170.384 3542.111 3120.017 L 3601.861 3163.017 C 3563.574 3215.477 3522.838 3265.944 3479.651 3314.417 L 3479.651 3314.437 Z M 3335.771 3460.267 L 3286.411 3405.667 C 3329.918 3365.88 3371.541 3324.174 3411.281 3280.547 L 3466.021 3329.757 C 3424.654 3375.23 3381.238 3418.734 3335.771 3460.267 Z M 3176.131 3591.677 L 3132.741 3532.217 C 3180.661 3496.757 3226.811 3459.147 3271.191 3419.387 L 3320.541 3473.987 C 3274.268 3515.407 3226.131 3554.637 3176.131 3591.677 Z M 3030.131 3690.057 L 2993.301 3626.267 C 3035.361 3600.52 3076.308 3573.187 3116.141 3544.267 L 3159.541 3603.727 C 3117.574 3634.127 3074.438 3662.904 3030.131 3690.057 Z M 2045.871 3978.897 L 2045.871 3905.257 C 2096.484 3904.057 2146.588 3900.904 2196.181 3895.797 L 2204.181 3969.007 C 2151.968 3974.38 2099.194 3977.677 2045.861 3978.897 L 2045.871 3978.897 Z M 840.131 3603.677 L 883.521 3544.227 C 923.401 3573.087 964.401 3600.42 1006.521 3626.227 L 969.691 3690.017 C 925.284 3662.937 882.098 3634.157 840.131 3603.677 Z M 672.911 3468.367 L 722.491 3413.967 C 768.664 3455.634 816.814 3495.02 866.941 3532.127 L 823.541 3591.577 C 771.321 3552.944 721.111 3511.874 672.911 3468.367 Z M 528.131 3323.437 L 583.061 3274.437 C 622.554 3318.217 664.001 3360.104 707.401 3400.097 L 657.821 3454.477 C 612.588 3412.804 569.358 3369.124 528.131 3323.437 Z M 397.811 3162.867 L 457.561 3119.867 C 492.701 3168.027 529.988 3214.437 569.421 3259.097 L 514.491 3308.097 C 473.391 3261.57 434.498 3213.16 397.811 3162.867 Z M 307.421 3027.867 L 371.211 2991.047 C 394.684 3029.387 419.441 3066.824 445.481 3103.357 L 385.731 3146.357 C 358.264 3107.844 332.161 3068.34 307.421 3027.847 L 307.421 3027.867 Z M 27.431 1804.397 L 100.671 1811.957 C 96.198 1858.057 93.378 1904.61 92.211 1951.617 L 18.581 1951.617 C 19.708 1902.077 22.658 1853.004 27.431 1804.397 Z M 385.811 848.777 L 445.551 891.777 C 419.484 928.31 394.701 965.784 371.201 1004.197 L 307.411 967.367 C 332.164 926.86 358.298 887.33 385.811 848.777 Z M 520.131 680.797 L 574.811 729.967 C 533.478 776.4 494.418 824.804 457.631 875.177 L 397.891 832.177 C 436.171 779.724 476.918 729.264 520.131 680.797 Z M 663.971 534.967 L 713.331 589.577 C 669.864 629.344 628.238 671.04 588.451 714.667 L 533.721 665.447 C 575.094 619.96 618.511 576.467 663.971 534.967 Z M 823.641 403.537 L 867.041 462.967 C 819.101 498.447 772.951 536.064 728.591 575.817 L 679.241 521.207 C 725.481 479.8 773.614 440.577 823.641 403.537 Z M 969.641 305.137 L 1006.481 368.937 C 964.408 394.69 923.454 422.024 883.621 450.937 L 840.221 391.477 C 882.161 361.077 925.294 332.297 969.621 305.137 L 969.641 305.137 Z M 1953.881 16.297 L 1953.881 89.967 C 1903.261 91.18 1853.151 94.334 1803.551 99.427 L 1795.551 26.197 C 1847.771 20.824 1900.548 17.524 1953.881 16.297 Z M 2193.131 25.147 L 2185.571 98.427 C 2139.464 93.96 2092.911 91.137 2045.911 89.957 L 2045.911 16.297 C 2095.391 17.41 2144.464 20.36 2193.131 25.147 Z M 3159.701 391.527 L 3116.241 450.967 C 3076.368 422.107 3035.368 394.774 2993.241 368.967 L 3030.081 305.167 C 3074.474 332.254 3117.664 361.04 3159.651 391.527 L 3159.701 391.527 Z M 3326.831 526.817 L 3277.241 581.217 C 3231.081 539.557 3182.938 500.174 3132.811 463.067 L 3176.221 403.617 C 3228.434 442.25 3278.638 483.317 3326.831 526.817 Z M 3471.641 671.757 L 3416.701 720.757 C 3377.208 676.977 3335.761 635.094 3292.361 595.107 L 3341.961 540.707 C 3387.174 582.374 3430.401 626.057 3471.641 671.757 Z M 3601.951 832.337 L 3542.191 875.337 C 3507.051 827.177 3469.764 780.764 3430.331 736.097 L 3485.271 687.097 C 3526.371 733.637 3565.264 782.05 3601.951 832.337 Z M 3692.341 967.337 L 3628.551 1004.167 C 3605.071 965.827 3580.314 928.39 3554.281 891.857 L 3614.031 848.857 C 3641.498 887.37 3667.601 926.87 3692.341 967.357 L 3692.341 967.337 Z M 3981.181 1951.597 L 3907.541 1951.597 C 3906.441 1905.397 3903.688 1859.62 3899.281 1814.267 L 3972.541 1806.797 C 3977.134 1854.61 3980.014 1902.884 3981.181 1951.617 L 3981.181 1951.597 Z M 3814.021 2795.087 L 3746.771 2765.087 C 3770.724 2710.787 3792.178 2655.22 3811.131 2598.387 L 3881.131 2621.197 C 3861.451 2680.464 3839.081 2738.434 3814.021 2795.107 L 3814.021 2795.087 Z M 2428.611 3932.637 L 2413.051 3860.637 C 2470.978 3847.797 2527.881 3832.364 2583.761 3814.337 L 2606.671 3884.337 C 2548.431 3903.117 2489.078 3919.217 2428.611 3932.637 Z M 1573.901 3933.237 C 1513.448 3919.95 1454.068 3903.95 1395.761 3885.237 L 1418.571 3815.237 C 1474.431 3833.144 1531.361 3848.477 1589.361 3861.237 L 1573.901 3933.237 Z M 115.291 2610.967 L 185.421 2588.537 C 204.828 2648.024 227.031 2706.167 252.031 2762.967 L 184.751 2792.857 C 158.718 2733.69 135.564 2673.06 115.291 2610.967 Z M 185.721 1200.077 L 252.971 1230.077 C 229.018 1284.39 207.564 1339.96 188.611 1396.787 L 118.611 1373.977 C 138.291 1314.744 160.661 1256.79 185.721 1200.117 L 185.721 1200.077 Z M 1571.131 62.557 L 1586.691 134.557 C 1528.751 147.397 1471.844 162.83 1415.971 180.857 L 1393.051 110.857 C 1451.311 92.084 1510.671 75.984 1571.131 62.557 Z M 2425.831 61.957 C 2486.278 75.29 2545.658 91.29 2603.971 109.957 L 2581.151 179.957 C 2525.291 162.057 2468.364 146.724 2410.371 133.957 L 2425.831 61.957 Z M 3884.481 1384.207 L 3814.331 1406.637 C 3794.924 1347.177 3772.721 1289.05 3747.721 1232.257 L 3815.011 1202.357 C 3841.044 1261.53 3864.201 1322.147 3884.481 1384.207 Z M 3892.761 1997.597 C 3892.761 2001.027 3892.641 2004.427 3892.621 2007.847 C 3892.561 2019.787 3892.461 2031.717 3892.171 2043.597 C 3891.064 2090.057 3888.268 2136.087 3883.781 2181.687 C 3883.114 2188.5 3882.414 2195.3 3881.681 2202.087 C 3875.014 2263.934 3865.411 2324.85 3852.871 2384.837 C 3851.471 2391.547 3849.961 2398.217 3848.491 2404.897 C 3835.824 2462.337 3820.611 2518.76 3802.851 2574.167 C 3800.761 2580.677 3798.671 2587.167 3796.511 2593.667 C 3777.791 2649.947 3756.531 2705.014 3732.731 2758.867 C 3729.971 2765.117 3727.281 2771.407 3724.461 2777.617 C 3704.974 2820.544 3683.938 2862.59 3661.351 2903.757 C 3656.441 2912.757 3651.421 2921.657 3646.351 2930.547 C 3642.971 2936.487 3639.554 2942.414 3636.101 2948.327 C 3629.248 2960.067 3622.284 2971.734 3615.211 2983.327 C 3591.978 3021.26 3567.478 3058.304 3541.711 3094.457 C 3537.711 3100.017 3533.651 3105.457 3529.631 3111.007 C 3493.231 3160.874 3454.518 3208.844 3413.491 3254.917 C 3408.941 3260.027 3404.491 3265.197 3399.851 3270.257 C 3360.518 3313.47 3319.268 3354.804 3276.101 3394.257 C 3271.051 3398.867 3265.941 3403.417 3260.841 3407.977 C 3216.894 3447.31 3171.158 3484.584 3123.631 3519.797 C 3118.131 3523.867 3112.631 3527.877 3107.061 3531.887 C 3067.674 3560.4 3027.184 3587.42 2985.591 3612.947 C 2977.681 3617.787 2969.691 3622.507 2961.711 3627.237 C 2955.821 3630.727 2949.971 3634.237 2944.041 3637.697 C 2931.461 3644.97 2918.794 3652.097 2906.041 3659.077 C 2867.981 3679.904 2829.144 3699.437 2789.531 3717.677 C 2783.318 3720.537 2777.098 3723.374 2770.871 3726.187 C 2714.804 3751.3 2657.348 3773.704 2598.501 3793.397 C 2592.021 3795.557 2585.501 3797.647 2579.001 3799.737 C 2523.668 3817.564 2467.274 3832.86 2409.821 3845.627 C 2403.151 3847.107 2396.471 3848.627 2389.771 3849.997 C 2332.404 3862.07 2274.124 3871.464 2214.931 3878.177 C 2208.131 3878.947 2201.351 3879.817 2194.531 3880.517 C 2145.511 3885.55 2095.961 3888.67 2045.881 3889.877 C 2034.001 3890.167 2022.081 3890.267 2010.151 3890.337 C 2006.721 3890.337 2003.321 3890.467 1999.891 3890.467 C 1996.461 3890.467 1993.061 3890.357 1989.631 3890.337 C 1977.701 3890.267 1965.781 3890.167 1953.901 3889.877 C 1907.441 3888.77 1861.414 3885.977 1815.821 3881.497 C 1809.011 3880.837 1802.211 3880.117 1795.421 3879.387 C 1733.561 3872.72 1672.634 3863.117 1612.641 3850.577 C 1605.941 3849.177 1599.281 3847.667 1592.641 3846.197 C 1535.208 3833.53 1478.791 3818.324 1423.391 3800.577 C 1416.871 3798.487 1410.391 3796.387 1403.881 3794.227 C 1347.594 3775.507 1292.528 3754.247 1238.681 3730.447 C 1232.431 3727.687 1226.141 3724.997 1219.921 3722.177 C 1176.994 3702.677 1134.951 3681.64 1093.791 3659.067 C 1081.024 3652.074 1068.358 3644.947 1055.791 3637.687 C 1049.871 3634.267 1044.021 3630.687 1038.141 3627.237 C 1030.141 3622.507 1022.141 3617.787 1014.261 3612.937 C 972.634 3587.444 932.108 3560.4 892.681 3531.807 C 887.141 3527.807 881.601 3523.807 876.111 3519.717 C 826.491 3482.984 778.774 3443.947 732.961 3402.607 C 727.891 3398.027 722.871 3393.387 717.851 3388.757 C 674.898 3349.137 633.824 3307.627 594.631 3264.227 C 590.051 3259.147 585.531 3254.007 581.011 3248.877 C 541.971 3204.664 505.018 3158.664 470.151 3110.877 C 466.151 3105.357 462.041 3099.877 458.071 3094.317 C 432.331 3058.237 407.854 3021.237 384.641 2983.317 C 377.554 2971.737 370.591 2960.07 363.751 2948.317 C 360.311 2942.404 356.898 2936.48 353.511 2930.547 C 348.451 2921.654 343.451 2912.724 338.511 2903.757 C 315.611 2861.937 294.254 2819.194 274.441 2775.527 C 271.621 2769.297 268.961 2762.987 266.201 2756.727 C 241.481 2700.487 219.481 2642.88 200.201 2583.907 C 198.071 2577.407 195.901 2570.907 193.851 2564.397 C 176.331 2508.944 161.424 2452.434 149.131 2394.867 C 147.701 2388.177 146.211 2381.517 144.851 2374.807 C 133.191 2317.354 124.191 2259.02 117.851 2199.807 C 117.121 2193.007 116.451 2186.197 115.851 2179.387 C 111.558 2134.567 108.831 2089.317 107.671 2043.637 C 107.381 2031.757 107.281 2019.827 107.211 2007.887 C 107.211 2004.467 107.081 2001.067 107.081 1997.637 C 107.081 1994.207 107.201 1990.807 107.211 1987.387 C 107.281 1975.457 107.381 1963.537 107.671 1951.657 C 108.778 1905.197 111.574 1859.17 116.061 1813.577 C 116.728 1806.77 117.428 1799.967 118.161 1793.167 C 124.828 1731.314 134.431 1670.39 146.971 1610.397 C 148.371 1603.687 149.881 1597.027 151.351 1590.347 C 164.018 1532.907 179.224 1476.49 196.971 1421.097 C 199.061 1414.587 201.161 1408.097 203.321 1401.607 C 222.041 1345.32 243.298 1290.25 267.091 1236.397 C 269.851 1230.147 272.541 1223.857 275.361 1217.637 C 294.861 1174.717 315.898 1132.67 338.471 1091.497 C 343.381 1082.497 348.401 1073.607 353.471 1064.717 C 356.851 1058.777 360.264 1052.854 363.711 1046.947 C 370.564 1035.2 377.531 1023.534 384.611 1011.947 C 407.844 974.014 432.348 936.97 458.121 900.817 C 462.121 895.257 466.121 889.817 470.191 884.267 C 506.591 834.394 545.301 786.424 586.321 740.357 C 590.871 735.247 595.321 730.077 599.971 725.017 C 639.304 681.804 680.554 640.47 723.721 601.017 C 728.721 596.397 733.881 591.857 738.981 587.287 C 782.934 547.954 828.668 510.684 876.181 475.477 C 881.671 471.417 887.181 467.397 892.741 463.387 C 932.141 434.874 972.638 407.854 1014.231 382.327 C 1022.131 377.487 1030.121 372.767 1038.111 368.037 C 1043.991 364.547 1049.831 361.037 1055.761 357.587 C 1068.341 350.314 1081.008 343.187 1093.761 336.207 C 1131.814 315.367 1170.648 295.834 1210.261 277.607 C 1216.461 274.747 1222.671 271.887 1228.911 269.097 C 1284.991 243.984 1342.454 221.577 1401.301 201.877 C 1407.781 199.717 1414.301 197.627 1420.811 195.537 C 1476.144 177.704 1532.541 162.407 1590.001 149.647 C 1596.661 148.167 1603.331 146.647 1610.001 145.277 C 1667.374 133.217 1725.654 123.827 1784.841 117.107 C 1791.631 116.327 1798.401 115.467 1805.211 114.767 C 1854.244 109.74 1903.801 106.617 1953.881 105.397 C 1969.171 105.037 1984.491 104.817 1999.881 104.817 C 2015.271 104.817 2030.581 105.037 2045.881 105.397 C 2092.341 106.517 2138.368 109.314 2183.961 113.787 C 2190.768 114.454 2197.571 115.157 2204.371 115.897 C 2266.224 122.564 2327.148 132.167 2387.141 144.707 C 2393.841 146.107 2400.511 147.607 2407.191 149.077 C 2464.618 161.744 2521.034 176.954 2576.441 194.707 C 2582.954 196.8 2589.454 198.914 2595.941 201.047 C 2652.228 219.767 2707.301 241.03 2761.161 264.837 C 2767.411 267.587 2773.691 270.277 2779.911 273.097 C 2822.831 292.597 2864.874 313.63 2906.041 336.197 C 2918.801 343.184 2931.468 350.31 2944.041 357.577 C 2949.971 360.997 2955.821 364.577 2961.711 368.027 C 2969.711 372.767 2977.711 377.487 2985.591 382.327 C 3027.211 407.827 3067.738 434.87 3107.171 463.457 C 3112.711 467.457 3118.251 471.457 3123.741 475.557 C 3173.361 512.29 3221.071 551.32 3266.871 592.647 C 3271.951 597.227 3276.981 601.877 3282.001 606.507 C 3324.961 646.074 3366.038 687.56 3405.231 730.967 C 3409.821 736.047 3414.331 741.197 3418.861 746.327 C 3457.901 790.534 3494.854 836.534 3529.721 884.327 C 3533.721 889.847 3537.831 895.327 3541.801 900.887 C 3567.541 936.967 3592.018 973.967 3615.231 1011.887 C 3622.331 1023.467 3629.294 1035.134 3636.121 1046.887 C 3639.574 1052.794 3642.991 1058.72 3646.371 1064.667 C 3651.431 1073.554 3656.431 1082.484 3661.371 1091.457 C 3684.271 1133.277 3705.631 1176.02 3725.451 1219.687 C 3728.271 1225.917 3730.931 1232.227 3733.691 1238.497 C 3758.411 1294.737 3780.411 1352.344 3799.691 1411.317 C 3801.811 1417.817 3803.981 1424.317 3806.031 1430.827 C 3823.471 1486.274 3838.351 1542.78 3850.671 1600.347 C 3852.111 1607.027 3853.591 1613.697 3854.951 1620.407 C 3866.611 1677.847 3875.611 1736.18 3881.951 1795.407 C 3882.681 1802.207 3883.351 1809.007 3884.001 1815.827 C 3888.288 1860.654 3891.014 1905.91 3892.181 1951.597 C 3892.471 1963.477 3892.571 1975.397 3892.631 1987.327 C 3892.641 1990.767 3892.761 1994.167 3892.761 1997.597 Z M 2600.681 186.367 L 2623.491 116.367 C 2682.751 136.054 2740.718 158.43 2797.391 183.497 L 2767.391 250.767 C 2713.091 226.78 2657.521 205.314 2600.681 186.367 Z M 1373.571 117.197 L 1396.491 187.197 C 1337.158 207.03 1279.174 229.637 1222.541 255.017 L 1192.181 187.967 C 1251.181 161.494 1311.644 137.904 1373.571 117.197 Z M 112.261 1393.477 L 182.261 1416.287 C 164.348 1472.147 149.014 1529.074 136.261 1587.067 L 64.261 1571.617 C 77.508 1511.184 93.508 1451.804 112.261 1393.477 Z M 179.071 2569.077 L 108.941 2591.497 C 90.568 2533.144 74.901 2473.67 61.941 2413.077 L 134.021 2397.967 C 146.461 2456.027 161.478 2513.064 179.071 2569.077 Z M 1399.071 3808.847 L 1376.261 3878.847 C 1317.014 3859.154 1259.061 3836.78 1202.401 3811.727 L 1232.401 3744.477 C 1286.674 3768.444 1342.228 3789.9 1399.061 3808.847 L 1399.071 3808.847 Z M 2626.131 3877.967 L 2603.231 3807.967 C 2662.564 3788.147 2720.538 3765.544 2777.151 3740.157 L 2807.511 3807.247 C 2748.538 3833.727 2688.078 3857.3 2626.131 3877.967 Z M 3887.481 2601.747 L 3817.481 2578.937 C 3835.388 2523.07 3850.721 2466.134 3863.481 2408.127 L 3935.481 2423.577 C 3922.208 2484.037 3906.208 2543.427 3887.481 2601.747 Z M 3897.231 1793.877 C 3890.864 1734.144 3881.788 1675.27 3870.001 1617.257 L 3942.101 1602.197 C 3954.394 1662.65 3963.861 1724.054 3970.501 1786.407 L 3897.231 1793.877 Z M 3865.731 1597.207 C 3853.291 1539.207 3838.291 1482.184 3820.731 1426.137 L 3890.871 1403.717 C 3909.238 1462.064 3924.904 1521.537 3937.871 1582.137 L 3865.731 1597.207 Z M 3806.731 1183.547 L 3739.441 1213.447 C 3719.441 1169.294 3697.838 1126.067 3674.631 1083.767 L 3738.431 1046.967 C 3762.898 1091.487 3785.678 1137.014 3806.771 1183.547 L 3806.731 1183.547 Z M 2913.701 322.817 C 2872.094 300.024 2829.571 278.74 2786.131 258.967 L 2816.131 191.697 C 2861.884 212.457 2906.678 234.9 2950.511 259.027 L 2913.701 322.817 Z M 2405.801 57.587 L 2390.341 129.587 C 2329.861 116.96 2268.391 107.27 2205.931 100.517 L 2213.491 27.237 C 2278.584 34.257 2342.688 44.374 2405.801 57.587 Z M 1783.181 101.757 C 1723.501 108.53 1664.691 118.007 1606.751 130.187 L 1591.191 58.187 C 1651.571 45.52 1712.904 35.637 1775.191 28.537 L 1783.181 101.757 Z M 1173.521 196.427 L 1203.891 263.527 C 1163.851 281.98 1124.568 301.744 1086.041 322.817 L 1049.221 259.047 C 1089.828 236.76 1131.261 215.887 1173.521 196.427 Z M 325.131 1083.767 C 302.331 1125.387 281.051 1167.91 261.291 1211.337 L 194.031 1181.337 C 214.764 1135.59 237.194 1090.8 261.321 1046.967 L 325.131 1083.767 Z M 59.861 1591.677 L 131.861 1607.127 C 119.241 1667.607 109.551 1729.08 102.791 1791.547 L 29.541 1783.967 C 36.554 1718.894 46.661 1654.797 59.861 1591.677 Z M 92.211 2043.597 C 93.304 2089.797 96.058 2135.567 100.471 2180.907 L 27.221 2188.377 C 22.628 2140.577 19.748 2092.317 18.581 2043.597 L 92.211 2043.597 Z M 102.511 2201.327 C 108.884 2261.087 117.961 2319.967 129.741 2377.967 L 57.661 2393.037 C 45.368 2332.57 35.901 2271.157 29.261 2208.797 L 102.511 2201.327 Z M 192.991 2811.657 L 260.271 2781.767 C 280.271 2825.914 301.874 2869.137 325.081 2911.437 L 261.331 2948.247 C 236.884 2903.714 214.104 2858.184 192.991 2811.657 Z M 1086.041 3672.397 C 1127.648 3695.184 1170.168 3716.46 1213.601 3736.227 L 1183.601 3803.487 C 1137.841 3782.714 1093.044 3760.27 1049.211 3736.157 L 1086.041 3672.397 Z M 1593.941 3937.607 L 1609.391 3865.607 C 1669.871 3878.24 1731.348 3887.934 1793.821 3894.687 L 1786.261 3967.937 C 1721.174 3960.93 1657.068 3950.82 1593.941 3937.607 Z M 1814.231 3896.787 C 1860.331 3901.254 1906.881 3904.077 1953.881 3905.257 L 1953.881 3978.897 C 1904.341 3977.77 1855.271 3974.82 1806.671 3970.047 L 1814.231 3896.787 Z M 2216.571 3893.467 C 2276.244 3886.687 2335.054 3877.21 2393.001 3865.037 L 2408.551 3937.037 C 2348.171 3949.75 2286.838 3959.637 2224.551 3966.697 L 2216.571 3893.467 Z M 2826.201 3798.777 L 2795.841 3731.687 C 2835.894 3713.24 2875.181 3693.474 2913.701 3672.387 L 2950.521 3736.157 C 2909.921 3758.437 2868.481 3779.31 2826.201 3798.777 Z M 3674.661 2911.437 C 3697.461 2869.83 3718.741 2827.31 3738.501 2783.877 L 3805.761 2813.877 C 3785.001 2859.637 3762.558 2904.437 3738.431 2948.277 L 3674.661 2911.437 Z M 3939.891 2403.517 L 3867.891 2388.067 C 3880.518 2327.6 3890.208 2266.134 3896.961 2203.667 L 3970.221 2211.227 C 3963.214 2276.307 3953.104 2340.404 3939.891 2403.517 Z" transform="matrix(0.9999999999999999, 0, 0, 0.9999999999999999, 0, -4.547473508864641e-13)"/>
</svg>